:SAMPLES-PER-SECOND 30
:FULLY-SPECIFIED
:DEGREES
52
root  34.8658 37.9517 3.53307 179.182 -88.9861 177.798
RightUpLeg  -24.8816 -15.2331 5.89733
RightLeg  13.2013 -6.35413 1.15888
RightFoot  2.91032 0.0771327 -0.491184
RightToes  0.000482159 0.542163 -0.142577
Spine  12.8065 -1.92386 -0.870681
Spine1  4.55786 -3.19338 3.61474
HEad  7.03786 9.17774 -8.11641
LeftShoulder1  7.64904 -11.576 -44.1594
LeftArm  11.8066 -1.44874 -40.7824
LeftForeArm  37.9324 -25.1012 -3.39131
LeftHand  -0.25398 0.0180481 5.50724
RightShoulder  4.18271 7.38562 32.468
RightArm  -10.6979 -18.0013 38.3542
RightForeArm  15.9427 9.27362 5.66975
RightHand  -0.893653 0.830554 -16.7253
LeftUpLeg  20.1729 10.567 2.865
LeftLeg  13.2768 7.80497 -1.50523
LeftFoot  -23.3286 -0.56716 -6.72782
LeftToes  1.06246e-005 4.65854e-005 -8.18502e-006
53
root  33.2757 37.8828 3.47306 110.381 -88.3067 -113.605
RightUpLeg  -26.1217 -19.0748 9.74452
RightLeg  18.7476 -2.1001 -0.946902
RightFoot  3.09284 0.589339 -4.53174
RightToes  0.000482159 0.542163 -0.142577
Spine  12.8473 -2.14375 2.04764
Spine1  4.62738 -3.11062 3.6251
HEad  5.97796 8.24077 -8.30018
LeftShoulder1  7.67109 -11.6537 -44.055
LeftArm  10.7841 0.344326 -39.722
LeftForeArm  36.7673 -24.3771 -3.3013
LeftHand  -0.25398 0.0180481 5.50724
RightShoulder  4.25255 7.48434 32.7578
RightArm  -12.9099 -16.5755 36.4601
RightForeArm  13.7205 8.67006 5.18984
RightHand  -1.05911 1.59046 -17.697
LeftUpLeg  21.8387 13.4879 6.3071
LeftLeg  15.797 3.39348 -0.235324
LeftFoot  -21.6834 -0.820151 -10.5472
LeftToes  1.06246e-005 4.65854e-005 -8.18502e-006
54
root  31.6538 37.8499 3.36288 117.34 -86.9297 -120.958
RightUpLeg  -25.355 -17.115 10.1097
RightLeg  23.4137 -2.89049 -1.62267
RightFoot  0.731301 0.706124 -6.6171
RightToes  0.000482159 0.542163 -0.142577
Spine  13.0011 -2.06346 4.7181
Spine1  4.68569 -2.50678 3.09814
HEad  5.51412 7.6374 -8.22408
LeftShoulder1  7.62149 -11.6136 -43.8774
LeftArm  9.27886 2.51382 -38.2836
LeftForeArm  35.3728 -23.1362 -3.26452
LeftHand  -0.25398 0.0180481 5.50724
RightShoulder  4.3729 7.71463 33.0372
RightArm  -14.6915 -15.11 35.173
RightForeArm  10.5068 8.25125 4.89427
RightHand  -1.22937 2.34078 -18.5746
LeftUpLeg  21.8368 14.9011 8.6419
LeftLeg  21.2587 1.11581 1.0368
LeftFoot  -17.8595 -0.753742 -15.3361
LeftToes  1.06246e-005 4.65854e-005 -8.18502e-006
55
root  30.1164 37.8848 3.19206 116.299 -85.9599 -119.908
RightUpLeg  -24.0717 -16.4027 10.5577
RightLeg  26.3873 -3.13831 -1.92177
RightFoot  -2.52859 0.553596 -7.36638
RightToes  0.000482159 0.542163 -0.142577
Spine  12.9411 -2.05015 6.88057
Spine1  4.6588 -2.003 2.82715
HEad  5.65988 7.06415 -7.85881
LeftShoulder1  7.53806 -11.5212 -43.6519
LeftArm  6.6654 4.70968 -36.5478
LeftForeArm  34.7643 -21.3617 -3.56221
LeftHand  -0.25398 0.0180481 5.50724
RightShoulder  4.4124 7.82032 33.0219
RightArm  -15.9171 -13.3384 34.884
RightForeArm  8.07299 8.02752 4.75711
RightHand  -1.33342 2.85028 -18.9151
LeftUpLeg  17.7383 12.2091 8.76832
LeftLeg  31.1467 4.09582 3.08293
LeftFoot  -9.13537 0.318318 -16.0459
LeftToes  1.06246e-005 4.65854e-005 -8.18502e-006
56
root  28.7522 37.9118 3.00207 106.18 -85.1465 -109.357
RightUpLeg  -23.1258 -17.0974 11.3993
RightLeg  28.4364 -3.07332 -2.04427
RightFoot  -5.43487 0.333848 -7.13907
RightToes  0.000482159 0.542163 -0.142577
Spine  12.7161 -2.1662 9.16183
Spine1  4.68782 -1.63307 2.81639
HEad  5.99079 5.94915 -7.20869
LeftShoulder1  7.50079 -11.5177 -43.4351
LeftArm  3.15008 6.52751 -34.7351
LeftForeArm  35.2122 -19.5773 -4.02732
LeftHand  -0.25398 0.0180481 5.50724
RightShoulder  4.3412 7.71631 32.7489
RightArm  -16.3611 -11.4901 35.3554
RightForeArm  6.90017 8.77951 4.87061
RightHand  -1.34372 3.04569 -18.633
LeftUpLeg  10.5213 9.22331 8.76811
LeftLeg  43.221 5.81301 6.16572
LeftFoot  3.88263 1.4697 -11.3859
LeftToes  1.06246e-005 4.65854e-005 -8.18502e-006
57
root  27.5196 37.8963 2.83193 98.0343 -84.2073 -101.026
RightUpLeg  -22.004 -17.976 12.1743
RightLeg  30.2212 -2.85641 -2.05038
RightFoot  -8.00776 0.129069 -6.26568
RightToes  0.000482159 0.542163 -0.142577
Spine  12.8189 -2.16848 11.722
Spine1  5.02165 -0.965583 2.6205
HEad  5.93996 4.30078 -6.36929
LeftShoulder1  7.51082 -11.5989 -43.2493
LeftArm  -0.00947667 7.89841 -33.0681
LeftForeArm  35.6324 -18.6574 -4.17941
LeftHand  -0.25398 0.0180481 5.50724
RightShoulder  4.30074 7.64592 32.6307
RightArm  -15.2298 -9.71016 35.7836
RightForeArm  5.51399 10.9658 5.29955
RightHand  -1.32607 3.08676 -18.3124
LeftUpLeg  2.99564 6.23638 8.88485
LeftLeg  53.8903 4.68732 7.26897
LeftFoot  14.1199 1.31766 -6.0905
LeftToes  1.06246e-005 4.65854e-005 -8.18502e-006
58
root  26.2267 38.0365 2.64523 99.885 -83.9647 -103.295
RightUpLeg  -19.2327 -18.4318 11.7577
RightLeg  30.5614 -2.3108 -1.73403
RightFoot  -10.2934 -0.0209083 -5.36607
RightToes  0.000482159 0.542163 -0.142577
Spine  13.2015 -1.70975 12.9906
Spine1  5.48297 0.0264675 2.05845
HEad  5.51035 2.71827 -5.52763
LeftShoulder1  7.46994 -11.5936 -43.0156
LeftArm  -1.96369 9.16429 -31.641
LeftForeArm  34.8538 -18.9138 -3.97379
LeftHand  -0.25398 0.0180481 5.50724
RightShoulder  4.40121 7.81489 32.9408
RightArm  -12.0294 -7.67974 35.7628
RightForeArm  3.04197 13.9692 5.65984
RightHand  -1.35495 3.16773 -18.5286
LeftUpLeg  -3.07544 4.21143 8.38154
LeftLeg  61.5218 2.84525 6.27991
LeftFoot  16.4902 0.648891 -2.96989
LeftToes  1.06246e-005 4.65854e-005 -8.18502e-006
59
root  24.847 38.3431 2.42475 107.209 -84.4944 -111.095
RightUpLeg  -15.4042 -18.915 10.2943
RightLeg  29.3536 -1.32959 -1.08106
RightFoot  -12.101 -0.113658 -4.75236
RightToes  0.000482159 0.542163 -0.142577
Spine  13.3586 -1.011 12.7452
Spine1  5.83233 0.911799 1.47211
HEad  5.21482 1.5753 -4.90832
LeftShoulder1  7.3387 -11.4328 -42.695
LeftArm  -2.96534 10.6845 -30.4047
LeftForeArm  32.8379 -19.8873 -3.69886
LeftHand  -0.25398 0.0180481 5.50724
RightShoulder  4.55262 8.05697 33.4364
RightArm  -7.96775 -5.10747 35.7519
RightForeArm  0.922842 16.704 5.61868
RightHand  -1.4346 3.36997 -19.153
LeftUpLeg  -8.31588 2.82245 7.21721
LeftLeg  65.8936 2.04637 5.73502
LeftFoot  13.2715 0.218414 -1.38144
LeftToes  1.06246e-005 4.65854e-005 -8.18502e-006
60
root  23.461 38.6559 2.20845 115.662 -85.0579 -119.585
RightUpLeg  -11.8694 -19.6812 8.63943
RightLeg  27.7311 -0.012725 -0.174986
RightFoot  -13.3907 -0.164932 -4.16174
RightToes  0.000482159 0.542163 -0.142577
Spine  13.0227 -0.376802 12.3284
Spine1  6.00272 1.5843 0.925066
HEad  5.26888 0.710647 -4.63676
LeftShoulder1  7.21003 -11.2722 -42.3823
LeftArm  -3.65452 12.4863 -29.3124
LeftForeArm  30.6396 -21.0489 -3.52245
LeftHand  -0.25398 0.0180481 5.50724
RightShoulder  4.59648 8.09983 33.6671
RightArm  -4.57858 -2.26402 36.3813
RightForeArm  0.123958 18.7875 5.35001
RightHand  -1.52083 3.65096 -19.668
LeftUpLeg  -13.4285 1.49687 6.08912
LeftLeg  66.95 2.17561 6.33762
LeftFoot  9.22084 0.0623693 -0.652782
LeftToes  1.06246e-005 4.65854e-005 -8.18502e-006
61
root  22.07 38.9452 2.01261 128.144 -85.3152 -131.939
RightUpLeg  -8.33115 -19.4583 6.66878
RightLeg  25.8813 0.695165 0.975312
RightFoot  -14.3272 -0.182449 -3.28802
RightToes  0.000482159 0.542163 -0.142577
Spine  12.5362 0.32396 12.1723
Spine1  6.04988 2.36626 -0.0175318
HEad  5.35885 -0.0522877 -4.633
LeftShoulder1  7.15653 -11.2428 -42.1355
LeftArm  -4.44808 14.3577 -28.4335
LeftForeArm  29.461 -22.1465 -3.45301
LeftHand  -0.25398 0.0180481 5.50724
RightShoulder  4.53724 7.98985 33.5311
RightArm  -2.06505 0.29286 37.6121
RightForeArm  -0.522301 20.7059 5.08442
RightHand  -1.58478 3.93564 -19.8722
LeftUpLeg  -17.8125 0.620418 5.01888
LeftLeg  64.706 2.69575 6.87549
LeftFoot  6.11754 -0.0745989 0.245705
LeftToes  1.06246e-005 4.65854e-005 -8.18502e-006
62
root  20.6817 39.2259 1.82488 145.94 -85.1089 -149.826
RightUpLeg  -4.30236 -17.6748 4.2927
RightLeg  23.4469 0.330634 2.20013
RightFoot  -15.0957 -0.176259 -2.26364
RightToes  0.000482159 0.542163 -0.142577
Spine  12.3583 1.135 11.8832
Spine1  6.07475 3.31961 -1.42165
HEad  5.1966 -0.61692 -4.71324
LeftShoulder1  7.12735 -11.2586 -41.9033
LeftArm  -5.32924 16.0804 -27.8742
LeftForeArm  29.4552 -22.9515 -3.45337
LeftHand  -0.25398 0.0180481 5.50724
RightShoulder  4.50506 7.97729 33.2957
RightArm  -0.262358 2.37487 38.8899
RightForeArm  -1.48169 22.8336 5.05245
RightHand  -1.61961 4.1386 -19.8824
LeftUpLeg  -20.7642 0.603574 3.85555
LeftLeg  59.2649 3.38121 6.67224
LeftFoot  3.20626 -0.0925752 0.549729
LeftToes  1.06246e-005 4.65854e-005 -8.18502e-006
63
root  19.3142 39.4268 1.64869 159.603 -84.4941 -163.587
RightUpLeg  -0.476828 -15.5443 2.29476
RightLeg  20.9314 -0.470717 3.27036
RightFoot  -15.7827 -0.16749 -1.56024
RightToes  0.000482159 0.542163 -0.142577
Spine  12.3087 1.79414 11.679
Spine1  6.13063 4.12769 -2.84339
HEad  4.80179 -0.941545 -4.79186
LeftShoulder1  7.07195 -11.2128 -41.6921
LeftArm  -6.04783 17.5151 -27.6467
LeftForeArm  29.7014 -23.1907 -3.45939
LeftHand  -0.25398 0.0180481 5.50724
RightShoulder  4.53768 8.11086 33.1261
RightArm  0.746281 4.18517 39.9405
RightForeArm  -1.57737 25.04 5.43293
RightHand  -1.61011 4.12967 -19.787
LeftUpLeg  -22.4832 1.39204 2.87271
LeftLeg  50.782 4.04616 5.74395
LeftFoot  0.962165 0.0132968 -0.173038
LeftToes  1.06246e-005 4.65854e-005 -8.18502e-006
64
root  17.9517 39.5246 1.49149 165.542 -83.8463 -169.26
RightUpLeg  2.65258 -13.3767 1.19237
RightLeg  18.6345 -1.64089 4.05116
RightFoot  -16.2088 -0.1668 -1.34136
RightToes  0.000482159 0.542163 -0.142577
Spine  11.9199 2.25467 11.9109
Spine1  6.31125 4.70261 -4.14285
HEad  4.25432 -1.1778 -4.9033
LeftShoulder1  7.03367 -11.1697 -41.5804
LeftArm  -6.63275 18.6886 -27.7187
LeftForeArm  29.5232 -22.8595 -3.44053
LeftHand  -0.25398 0.0180481 5.50724
RightShoulder  4.56175 8.23056 32.9333
RightArm  1.58867 5.82366 40.9129
RightForeArm  -0.801229 27.2034 5.90458
RightHand  -1.56049 3.89666 -19.6558
LeftUpLeg  -23.2626 3.15811 1.98775
LeftLeg  39.3315 3.95759 3.87925
LeftFoot  0.240488 0.0610327 -0.617596
LeftToes  1.06246e-005 4.65854e-005 -8.18502e-006
65
root  16.587 39.5735 1.34926 169.399 -83.1825 -172.685
RightUpLeg  5.64444 -11.5332 0.48175
RightLeg  16.1301 -2.35518 4.58216
RightFoot  -16.4039 -0.162233 -1.1583
RightToes  0.000482159 0.542163 -0.142577
Spine  11.3395 2.66611 12.1443
Spine1  6.76891 5.25492 -5.46915
HEad  3.60446 -1.32056 -5.04159
LeftShoulder1  7.04216 -11.1965 -41.5527
LeftArm  -7.35809 19.8485 -28.0865
LeftForeArm  29.1348 -22.2853 -3.42704
LeftHand  -0.25398 0.0180481 5.50724
RightShoulder  4.56374 8.297 32.7319
RightArm  2.52174 7.19585 41.8004
RightForeArm  0.135873 29.2539 6.348
RightHand  -1.53179 3.69629 -19.7105
LeftUpLeg  -23.016 7.05804 0.273309
LeftLeg  25.4693 1.80416 1.60318
LeftFoot  0.968401 0.111144 -1.06456
LeftToes  1.06246e-005 4.65854e-005 -8.18502e-006
66
root  15.1915 39.5484 1.22127 174.096 -82.6397 -177.296
RightUpLeg  8.97518 -10.6949 -0.653815
RightLeg  13.9151 -1.80024 4.9886
RightFoot  -17.028 -0.131624 -0.351188
RightToes  0.000482159 0.542163 -0.142577
Spine  11.0689 2.89067 11.8548
Spine1  7.44101 5.71772 -6.61294
HEad  3.02822 -1.17601 -5.09036
LeftShoulder1  7.04313 -11.2043 -41.5351
LeftArm  -8.20486 21.1818 -28.6819
LeftForeArm  28.9227 -21.6705 -3.42287
LeftHand  -0.25398 0.0180481 5.50724
RightShoulder  4.61149 8.41173 32.7598
RightArm  3.71889 8.30081 42.4263
RightForeArm  0.716834 30.88 6.72255
RightHand  -1.58038 3.80388 -20.086
LeftUpLeg  -21.6 10.128 -1.22879
LeftLeg  11.3255 2.73632 -0.791212
LeftFoot  2.43502 0.321083 -2.77647
LeftToes  1.06246e-005 4.65854e-005 -8.18502e-006
